<?xml version="1.0" standalone="no"?><!DOCTYPE svg PUBLIC "-//W3C//DTD SVG 1.1//EN" "http://www.w3.org/Graphics/SVG/1.1/DTD/svg11.dtd"><svg t="1678529235751" class="icon" viewBox="0 0 1024 1024" version="1.1" xmlns="http://www.w3.org/2000/svg" p-id="4386" xmlns:xlink="http://www.w3.org/1999/xlink" width="400" height="400"><path d="M899.917984 412.336116c-0.792039-0.465604-1.630127-0.87595-2.477424-1.219781l-101.717659-40.925085-44.083008-141.29198c-8.205892-25.100678-32.012088-34.396391-49.205679-39.21207-1.350764-0.381693-2.747577-0.605797-4.14439-0.679475l-227.249701-11.866259c-37.832653-8.224312-73.328076 5.91471-90.093924 35.075867-12.722766 22.13002-12.657274 48.758494 0.11154 71.447239l55.632041 125.923968-104.315834 63.688531c-15.899108 8.764618-27.475771 23.163559-32.654724 40.599673-5.215792 17.593703-3.269463 36.174897 5.485945 52.29811 12.033058 22.185278 35.18843 35.970236 60.428278 35.970236 11.381212 0 22.697955-2.88777 32.720216-8.335852l183.381587-99.463316c15.935947-8.633634 28.016077-23.554462 33.157167-40.953737 5.131881-17.425881 3.231601-35.802414-5.336542-51.813063l-27.895327-59.329247 59.022255-4.666276 41.129746 90.512457c5.588275 15.331173 16.774035 28.490891 31.583323 37.134759 0.670266 0.390903 1.369184 0.744967 2.077312 1.052982l128.960117 55.408961c7.554046 3.948939 19.10308 6.277984 31.30396 6.277984 25.13854 0 45.39591-10.022261 55.57576-27.484981 13.803377-23.667026 9.425673-42.852994 3.324722-54.793954C928.204214 433.106162 916.841422 422.199765 899.917984 412.336116zM898.362558 481.268068c-4.629437 7.93574-18.488073 8.549723-22.623253 8.549723-7.02295 0-12.359492-1.359974-13.346983-1.778506-0.670266-0.390903-1.369184-0.744967-2.077312-1.052982l-128.596843-55.250348c-6.789637-4.209882-11.809977-10.245342-14.19428-17.09126-0.195451-0.549515-0.409322-1.089821-0.651846-1.611707l-46.998407-103.412254c-3.315512-7.329942-10.785647-11.670807-18.869766-11.130502l-99.835799 7.897877c-6.249331 0.493234-11.846816 4.02364-14.995529 9.434883-3.14769 5.420453-3.427052 12.034081-0.763386 17.696034l39.854707 84.765569c0.158612 0.354064 0.335644 0.698918 0.521886 1.033539 3.930519 7.18054 4.815679 15.451924 2.515287 23.275099-2.281973 7.730055-7.656377 14.371312-14.743796 18.21792l-183.400007 99.472526c-4.526083 2.459005-9.416464 3.707438-14.520715 3.707438-11.232832 0-21.542642-6.128581-26.898627-16.010649-3.89368-7.17133-4.759397-15.433504-2.440585-23.25668 2.328022-7.833409 7.554046-14.278191 14.725376-18.161638 0.288572-0.158612 0.567935-0.326435 0.847298-0.493234l118.957299-72.630181c8.16803-4.982478 11.372002-15.238053 7.506974-23.992437l-62.775742-142.102439c-0.279363-0.642636-0.605797-1.276063-0.959861-1.88186-6.482645-11.130502-6.687306-23.610744-0.577145-34.237779 6.705726-11.660574 19.541055-18.348903 35.225269-18.348903 4.731768 0 9.723455 0.605797 14.846126 1.797949 1.099031 0.260943 2.216481 0.419556 3.344165 0.474814l226.672556 11.837606c16.419971 4.889357 20.006659 9.900487 21.198811 13.524015l46.690392 149.674904c1.704828 5.467525 5.774517 9.872858 11.083429 12.014638l108.777449 43.765783c11.968589 7.17133 16.839527 13.226233 18.814508 17.10047C902.590859 466.813868 903.81985 471.907886 898.362558 481.268068z" fill="#FF0000" p-id="4387"></path><path d="M871.752504 324.244802c4.339842 0 8.726755-0.326435 13.039991-0.978281 47.426149-7.143701 80.211856-51.54291 73.077366-98.979292-6.361895-42.219567-43.309388-74.054623-85.957721-74.054623-4.330632 0-8.717546 0.326435-13.029758 0.978281-47.435359 7.143701-80.211856 51.55212-73.068156 98.988502C792.174074 292.419979 829.122591 324.244802 871.752504 324.244802zM864.561731 188.933023c2.431376-0.363274 4.9088-0.549515 7.348362-0.549515 23.927969 0 44.660152 17.873066 48.236608 41.586141 4.00522 26.628474-14.408151 51.561329-41.036625 55.57576-26.367531 3.9121-51.636031-14.902408-55.57576-41.027415C819.519886 217.880309 837.924047 192.947454 864.561731 188.933023z" fill="#FF0000" p-id="4388"></path><path d="M737.781256 816.299541l-53.797253 17.072841c-14.743796 4.657067-40.086997 1.592264-53.247738-6.426363L94.161566 499.905544c-9.016351-5.495154-20.742417-2.636037-26.219151 6.361895-5.476735 8.996908-2.636037 20.733207 6.361895 26.219151l536.574698 327.039451c15.107069 9.202593 36.174897 14.241352 56.079226 14.241352 10.133801 0 19.968797-1.303692 28.556383-4.03285l53.797253-17.072841c10.04989-3.185552 15.600303-13.905708 12.415774-23.946388C758.531859 818.656215 747.765655 813.141618 737.781256 816.299541z" fill="#FF0000" p-id="4389"></path></svg>